<svg width="32" height="32" viewBox="0 0 32 32" fill="none" xmlns="http://www.w3.org/2000/svg">

  <rect x="0.5" y="0.5" width="31" height="31" rx="7.5" fill="white" stroke="#cccccc" />


  <svg
    x="10.5" y="10.5"              
    width="11" height="11"
    viewBox="7.9 8.6 14.8 14.8"    
    fill="none"
    xmlns="http://www.w3.org/2000/svg"
  >
    <path
      d="M22.2 21.1L17.1 16L22.2 10.9C22.7 10.4 22.7 9.6 22.2 9.1C21.7 8.6 20.9 8.6 20.4 9.1L15.3 14.2L10.2 9.1C9.7 8.6 8.9 8.6 8.4 9.1C7.9 9.6 7.9 10.4 8.4 10.9L13.5 16L8.4 21.1C7.9 21.6 7.9 22.4 8.4 22.9C8.9 23.4 9.7 23.4 10.2 22.9L15.3 17.8L20.4 22.9C20.9 23.4 21.7 23.4 22.2 22.9C22.7 22.4 22.7 21.6 22.2 21.1Z"
      fill="#B5B5B5"
    />
  </svg>
</svg>
